<?xml version="1.0" encoding="UTF-8" standalone="no"?>
<svg
   xmlns:dc="http://purl.org/dc/elements/1.1/"
   xmlns:cc="http://creativecommons.org/ns#"
   xmlns:rdf="http://www.w3.org/1999/02/22-rdf-syntax-ns#"
   xmlns:svg="http://www.w3.org/2000/svg"
   xmlns="http://www.w3.org/2000/svg"
   viewBox="0 0 73.75 21.25"
   height="64"
   width="242"
   xml:space="preserve"
   version="1.1"
   id="svg2"><metadata
     id="metadata8"><rdf:RDF><cc:Work
         rdf:about=""><dc:format>image/svg+xml</dc:format><dc:type
           rdf:resource="http://purl.org/dc/dcmitype/StillImage" /></cc:Work></rdf:RDF></metadata><defs
     id="defs6" /><g
     transform="matrix(1.25,0,0,-1.25,0,21.25)"
     id="g10"><g
       transform="scale(0.1,0.1)"
       id="g12"><path
         id="path14"
         style="fill:#000000;fill-opacity:1;fill-rule:nonzero;stroke:none"
         d="m 579.648,118.961 0,-0.004 0,0.004 z m -295.851,16.266 c -0.039,0.761 -0.617,1.3 -1.399,1.3 l -19.402,0 c -0.777,0 -1.543,-0.531 -1.848,-1.293 L 231.469,60.9297 c -0.41,-1.0352 0.215,-2.0274 1.273,-2.0274 l 17.676,0 c 0.828,0 1.637,0.6094 1.887,1.4375 l 14.402,43.3982 0.672,-43.4099 c -0.024,-0.8242 0.574,-1.4258 1.41,-1.4258 l 16.641,0 c 1.054,0 2.015,0.9922 1.98,2.0157 l -3.613,74.309 z m -71.828,-46.3754 -17.223,0 0,0.0078 -0.094,0 c -0.797,0.0625 -1.293,0.8672 -1.125,1.8086 l 2.653,14.879 c 0.121,0.937 0.871,1.695 1.664,1.695 l 17.886,0 c 0.012,0.211 0.02,0.434 0.024,0.649 0.012,0.757 -0.024,1.55 -0.117,2.379 l 0.004,0 -0.004,0.019 c -0.078,0.766 -0.223,1.52 -0.422,2.231 -0.195,0.683 -0.457,1.355 -0.774,1.996 l -0.019,0.031 -0.024,0.051 c -0.3,0.632 -0.679,1.207 -1.117,1.718 -0.445,0.512 -0.961,0.973 -1.558,1.372 l 0,0.007 -0.008,0.004 c -0.563,0.383 -1.215,0.68 -1.945,0.879 -0.735,0.207 -1.582,0.317 -2.52,0.328 l 0,0 c -0.758,0 -1.508,-0.051 -2.234,-0.133 -0.735,-0.082 -1.477,-0.207 -2.207,-0.371 -0.723,-0.164 -1.426,-0.359 -2.09,-0.582 -0.668,-0.222 -1.305,-0.472 -1.922,-0.761 l 0,0 c -0.07,-0.032 -0.137,-0.063 -0.215,-0.082 -0.797,-0.231 -1.527,0.316 -1.605,1.226 l -1.297,13.535 c -0.129,0.84 0.34,1.77 1.09,2.11 0.625,0.289 1.324,0.578 2.066,0.867 0.758,0.289 1.519,0.558 2.285,0.808 0.848,0.282 1.734,0.536 2.625,0.762 0.836,0.199 1.766,0.395 2.797,0.57 1.02,0.176 2.059,0.309 3.113,0.391 1.043,0.086 2.16,0.137 3.34,0.137 l 0.047,0.019 c 1.871,-0.011 3.602,-0.156 5.199,-0.449 1.602,-0.289 3.09,-0.726 4.442,-1.316 1.375,-0.59 2.605,-1.282 3.711,-2.078 1.117,-0.805 2.128,-1.735 3.015,-2.778 l 0,0.008 0,-0.012 c 0.879,-1.019 1.656,-2.132 2.328,-3.316 0.68,-1.188 1.258,-2.469 1.727,-3.813 l 0,0 c 0.461,-1.332 0.855,-2.707 1.156,-4.128 0.301,-1.411 0.535,-2.875 0.672,-4.391 0.145,-1.508 0.23,-3.012 0.25,-4.512 0.02,-1.453 -0.016,-2.965 -0.105,-4.504 l -0.008,-0.121 c -0.106,-1.562 -0.254,-3.09 -0.43,-4.57 l 0,-0.004 c -0.18,-1.4297 -0.398,-2.8789 -0.66,-4.3438 l -0.02,-0.1367 c -0.566,-3.1211 -1.293,-6.0703 -2.168,-8.8437 -0.886,-2.7891 -1.922,-5.3946 -3.113,-7.8008 -1.199,-2.4375 -2.5,-4.6719 -3.914,-6.6953 l 0,0 c -1.426,-2.0469 -2.969,-3.8985 -4.621,-5.5391 -1.672,-1.6719 -3.414,-3.1211 -5.219,-4.3672 l 0,0.0078 -0.008,0 c -1.82,-1.2539 -3.718,-2.3047 -5.691,-3.1523 -1.961,-0.836 -3.969,-1.4688 -6.004,-1.8906 -2.004,-0.4141 -4.051,-0.6211 -6.125,-0.6211 l -0.094,-0.0079 c -1.039,0.0079 -2.082,0.0625 -3.113,0.1524 -1,0.082 -1.953,0.207 -2.852,0.3633 l 0,0.0078 -0.007,0 c -0.914,0.1758 -1.762,0.3555 -2.516,0.5508 -0.773,0.1953 -1.496,0.4218 -2.18,0.6601 l -0.019,0 -0.02,0.0078 c -0.64,0.2188 -1.238,0.4453 -1.781,0.6719 -0.613,0.2578 -1.109,0.4883 -1.5,0.6953 l 0.004,0.0078 c -0.629,0.3321 -0.879,1.211 -0.559,2.0508 l 5.356,14.1016 c 0.031,0.082 0.062,0.1758 0.101,0.2578 0.414,0.8672 1.313,1.293 2.016,0.9414 0.527,-0.2773 1.074,-0.5195 1.621,-0.7148 0.539,-0.1954 1.117,-0.3829 1.719,-0.5469 l 0.058,-0.0117 c 0.622,-0.1563 1.274,-0.2696 1.957,-0.3516 0.692,-0.082 1.403,-0.1289 2.145,-0.1289 l 0,-0.0039 c 1.129,0.0117 2.203,0.125 3.195,0.332 0.926,0.1992 1.778,0.4883 2.563,0.875 l 0.07,0.0352 c 0.801,0.3828 1.551,0.8476 2.227,1.3633 0.679,0.5234 1.308,1.1132 1.867,1.7539 l 0.008,0.0039 c 0.57,0.6679 1.105,1.3828 1.593,2.1445 l 0,0 c 0.485,0.7539 0.93,1.5508 1.325,2.3867 0.41,0.8633 0.773,1.7266 1.093,2.5586 l 0.008,0.0274 0.227,0.6328 z m 112.597,19.0504 14.645,0 0,-0.011 0.09,0 c 0.789,-0.063 1.293,-0.875 1.129,-1.809 l -2.5,-13.9882 c -0.117,-0.9415 -0.864,-1.6954 -1.664,-1.6954 l -14.828,0 -2.379,-13.3203 16.617,0 0,-0.0078 0.094,-0.0039 c 0.793,-0.0586 1.296,-0.875 1.125,-1.8047 l -2.618,-14.6523 c -0.121,-0.9414 -0.863,-1.6953 -1.66,-1.6953 l -35.234,0 -0.094,0 c -0.785,0.0625 -1.293,0.8789 -1.125,1.8086 l 13.25,74.1053 c 0.125,0.934 0.863,1.695 1.664,1.695 l 34.012,0 0,-0.007 0.098,0 c 0.789,-0.063 1.292,-0.871 1.121,-1.809 l -2.618,-14.652 c -0.121,-0.934 -0.867,-1.696 -1.66,-1.696 l -15.593,0 -1.872,-10.457 z m 82.696,-48.9879 -15.094,0 c -0.797,0 -1.34,0.7656 -1.227,1.7148 l 2.942,23.2188 0.008,0.0507 c 0.172,1.3633 0.398,3.1016 0.621,4.9493 l 0.226,1.7578 0.012,0.0859 0.289,2.1133 -0.332,-0.8672 0,0 -1.269,-3.2812 -0.004,-0.004 -0.313,-0.8164 0,-0.0117 -0.004,-0.0078 c -0.515,-1.3125 -0.961,-2.457 -1.328,-3.3555 l -0.004,-0.0039 -9.332,-22.7422 c -0.258,-0.7265 -0.89,-1.2617 -1.558,-1.2617 l -12.332,0 0,0 c -0.68,0 -1.215,0.5664 -1.25,1.375 l -0.981,22.8438 0,0.0117 -0.07,1.7578 -0.012,0.1524 -0.051,2.2695 0,0.0195 -0.047,2.457 -0.015,0.1211 -0.032,2.336 -0.785,-3.3477 -0.004,0 0,-0.0078 -0.832,-3.5117 -0.011,-0.0547 -0.735,-3.1328 -0.011,-0.0586 -5.372,-23.2813 c -0.195,-0.8398 -0.886,-1.4882 -1.632,-1.4882 l -14.422,0 c -0.074,0 -0.141,0.0039 -0.219,0.0195 -0.769,0.1445 -1.207,1.0117 -0.961,1.9414 l 18.961,74.121 c 0.191,0.856 0.891,1.527 1.633,1.527 l 17.836,0 0,-0.007 c 0.699,0.007 1.238,-0.586 1.25,-1.418 l 0.465,-23.754 0.007,-0.094 c 0.122,-4.34 0.196,-7.461 0.27,-10.633 l 0.062,-2.8084 0,-0.0039 c 0.028,-1.3633 0.047,-2.7539 0.051,-4.1641 0.465,1.3946 0.961,2.8164 1.489,4.2891 0.746,2.1213 1.55,4.3433 2.394,6.6793 0.828,2.27 1.664,4.543 2.524,6.829 l 0,0.007 8.968,23.778 c 0.239,0.754 0.891,1.312 1.574,1.312 l 17.719,-0.012 0,0 c 0.797,0 1.344,-0.753 1.239,-1.695 l -8.625,-74.1053 -0.012,-0.1133 c -0.117,-0.9414 -0.867,-1.7031 -1.664,-1.7031 l 0,0.0078 z m 39.84,48.9879 14.64,0 0,-0.011 0.09,0 c 0.793,-0.063 1.301,-0.875 1.125,-1.809 l -2.5,-13.9882 c -0.113,-0.9415 -0.867,-1.6954 -1.664,-1.6954 l -14.816,0 -2.387,-13.3203 16.625,0 0,-0.0078 0.098,-0.0039 c 0.781,-0.0586 1.285,-0.875 1.117,-1.8047 l -2.621,-14.6523 c -0.118,-0.9414 -0.868,-1.6953 -1.664,-1.6953 l -35.223,0 -0.094,0 c -0.797,0.0625 -1.293,0.8789 -1.129,1.8086 l 13.25,74.1053 c 0.117,0.934 0.856,1.695 1.664,1.695 l 34.016,0 0,-0.007 0.09,0 c 0.785,-0.063 1.293,-0.871 1.125,-1.809 l -2.621,-14.652 c -0.118,-0.934 -0.864,-1.696 -1.664,-1.696 l -15.594,0 -1.863,-10.457 z m 19.601,-47.1754 13.246,74.1014 c 0.117,0.934 0.864,1.695 1.664,1.695 l 17.067,0 0,-0.007 0.082,0 c 0.793,-0.063 1.301,-0.871 1.125,-1.809 l -4.821,-27.031 9.645,0 4.855,27.152 c 0.118,0.934 0.86,1.695 1.657,1.695 l 17.07,0 0,-0.007 0.094,0 c 0.785,-0.063 1.297,-0.871 1.125,-1.809 L 516.266,60.6094 c -0.125,-0.9414 -0.864,-1.6953 -1.664,-1.6953 l -17.067,0 -0.097,0 c -0.786,0.0625 -1.286,0.8789 -1.125,1.8086 l 4.949,27.6914 -9.645,0 -4.965,-27.8047 c -0.121,-0.9414 -0.871,-1.6953 -1.664,-1.6953 l -17.07,0 -0.09,0 c -0.789,0.0625 -1.297,0.8789 -1.125,1.8086 l 0,0.0039 z m 87.856,-1.8125 -17.059,0 -0.09,0 c -0.793,0.0625 -1.297,0.8789 -1.125,1.8086 l 10.102,56.5313 -11.336,0.004 0,0.004 -0.094,0 c -0.793,0.062 -1.293,0.871 -1.125,1.808 l 2.809,15.743 0.007,0.007 c 0.118,0.942 0.86,1.703 1.657,1.703 l 42.941,0 0,-0.007 0.094,0 c 0.789,-0.063 1.293,-0.871 1.117,-1.809 l -2.809,-15.75 c -0.125,-0.937 -0.871,-1.699 -1.664,-1.699 l -11.636,0 -10.125,-56.6486 c -0.11,-0.9414 -0.86,-1.6953 -1.664,-1.6953" /><path
         id="path16"
         style="fill:#e30017;fill-opacity:1;fill-rule:evenodd;stroke:none"
         d="m 70.2266,3.34766 0,0.3789 -3.6797,0 c -3.1875,0.40235 -6.2969,1 -9.3203,1.78125 l 0,0.21485 -0.8125,0 c -0.7344,0.19922 -1.461,0.41015 -2.1875,0.6289 l 0,0.3711 -1.1953,0 c -0.9454,0.30859 -1.879,0.63281 -2.8047,0.97656 l 0,0.02344 -0.0664,0 c -3.461,1.28515 -6.7813,2.82424 -9.9336,4.58984 l 0,0.4141 -0.7344,0 -1.2656,0.75 0,0.25 -0.4102,0 c -1.9297,1.1875 -3.793,2.4609 -5.5898,3.8203 l 0,0.1797 -0.2383,0 c -2.0117,1.539 -3.9336,3.1953 -5.7617,4.9414 l 0,0.0586 -0.0586,0 -0.9414,0.914 0,0.0821 -0.0821,0 -0.914,0.9375 0,0.0625 -0.0625,0 -0.9414,1 c -1.4024,1.5195 -2.7383,3.1015 -3.9961,4.7461 l 0,0.2578 -0.1953,0 c -0.6211,0.8164 -1.2227,1.6523 -1.8086,2.4961 l 0,0.5 -0.3438,0 -0.6562,0.9843 0,0.0157 -0.0118,0 c -1.457,2.2304 -2.7851,4.5507 -3.9882,6.957 l 0,0.043 -0.0235,0 c -0.7031,1.414 -1.3633,2.8476 -1.9726,4.3164 l 0,0.6836 -0.28128,0 C 9.70313,47.3398 9.46094,47.9609 9.22656,48.582 l 0,0.1446 -0.05078,0 c -0.73437,1.9843 -1.38672,4.0156 -1.94922,6.0859 l 0,0.9102 -0.23828,0 c -0.27734,1.0742 -0.53125,2.1562 -0.75781,3.2539 l 0,1.7461 -0.34375,0 C 4.62891,67.5742 4.30469,74.8047 5.04297,82.2773 l 0.00781,0.0625 0.15625,1.3829 0.01953,0 0,0.1796 c 0.19532,1.6172 0.4336,3.2305 0.71875,4.8204 l 0.28516,0 0,1.5156 c 0.23047,1.1719 0.49219,2.332 0.77344,3.4883 l 0.22265,0 0,0.9062 c 0.52344,2.0586 1.13282,4.086 1.80469,6.0902 l 0.19531,0 0,0.57 c 0.28125,0.816 0.57032,1.629 0.87894,2.434 l 0.125,0 0,0.332 0.6601,1.664 0.336,0 0,0.8 c 0.3086,0.739 0.6289,1.473 0.957,2.2 l 0.043,0 0,0.09 c 0.2929,0.64 0.5898,1.281 0.8945,1.91 l 0.1055,0 0,0.222 c 0.6211,1.278 1.2734,2.535 1.9531,3.778 l 0.0508,0 0,0.09 c 0.539,0.98 1.0976,1.953 1.6758,2.91 l 0.3203,0 0,0.543 0.914,1.457 0.086,0 0,0.144 c 0.6211,0.965 1.2539,1.914 1.9101,2.856 l 0.0899,0 0,0.132 c 2.414,3.469 5.0664,6.77 7.9375,9.868 l 0.0664,0 0,0.07 0.875,0.93 0.1211,0 0,0.129 0.8515,0.875 0.1485,0 0,0.152 0.8437,0.844 0.1563,0 0,0.156 0.8711,0.844 0.1289,0 0,0.125 0.9375,0.875 0.0664,0 0,0.062 c 1.4687,1.363 2.9843,2.676 4.5429,3.938 l 0.4532,0 0,0.371 0.8047,0.629 0.1953,0 0,0.156 c 1.2617,0.98 2.5429,1.934 3.8515,2.844 l 0.1485,0 0,0.105 c 2.5429,1.766 5.1757,3.395 7.8867,4.895 l 0.1172,0 0,0.066 1.7461,0.934 0.25,0 0,0.136 1.7148,0.868 0.2891,0 0,0.14 1.8086,0.856 0.1875,0 0,0.086 c 2.3632,1.078 4.7773,2.05 7.2304,2.918 l 0.7696,0 0,0.261 c 0.75,0.254 1.5039,0.5 2.2578,0.739 l 0.7422,0 0,0.23 c 0.8984,0.273 1.8086,0.523 2.7148,0.766 l 0.2852,0 0,0.078 c 1.2968,0.34 2.6054,0.644 3.9179,0.922 l 0.0821,0 0,0.019 c 1.8672,0.391 3.7422,0.719 5.6406,0.981 l 3.3594,0 0,0.402 c 2.6015,0.254 5.2265,0.383 7.8711,0.383 l 85.5153,0 -13.988,-79.2502 -0.285,-1.5312 -0.11,0 0,-0.5899 c -0.23,-1.1445 -0.476,-2.2812 -0.746,-3.4101 l -0.257,0 0,-1.0743 c -0.239,-0.9804 -0.497,-1.9609 -0.766,-2.9296 l -0.234,0 0,-0.8321 c -0.305,-1.0625 -0.629,-2.1172 -0.965,-3.1679 l -0.035,0 0,-0.1055 c -0.313,-0.9727 -0.645,-1.9336 -0.985,-2.8945 l -0.012,0 0,-0.0313 c -0.597,-1.6758 -1.242,-3.332 -1.921,-4.9687 l -0.082,0 0,-0.1954 -0.778,-1.8007 -0.222,0 0,-0.4961 -0.688,-1.5078 -0.309,0 0,-0.6407 c -1.199,-2.5117 -2.5,-4.9687 -3.89,-7.3554 l -0.113,0 0,-0.1993 c -0.551,-0.9453 -1.122,-1.8789 -1.704,-2.8046 l -0.296,0 0,-0.461 -0.997,-1.539 -0.003,0 0,0 -0.664,-1 -0.336,0 0,-0.4805 c -1.547,-2.2461 -3.188,-4.418 -4.903,-6.5156 l -0.097,0 0,-0.1211 -0.727,-0.8828 -0.27,0 0,-0.3125 c -3.269,-3.8516 -6.82,-7.4336 -10.621,-10.6875 l -0.382,0 0,-0.3204 -0.805,-0.6757 -0.195,0 0,-0.1641 c -1.188,-0.9805 -2.403,-1.9258 -3.637,-2.8398 l -0.363,0 0,-0.2657 c -2.844,-2.0898 -5.801,-4.0039 -8.864,-5.7304 l -0.136,0 0,-0.0821 c -0.559,-0.3125 -1.125,-0.6211 -1.688,-0.9179 l -0.309,0 0,-0.1641 -1.64,-0.8398 -0.363,0 0,-0.1758 -1.715,-0.8242 -0.282,0 0,-0.1289 c -0.648,-0.2969 -1.296,-0.5899 -1.953,-0.87114 l -0.05,0 0,-0.02344 C 106.57,8.98438 104.887,8.33203 103.18,7.72266 l -0.953,0 0,-0.32813 C 101.547,7.16406 100.871,6.9375 100.18,6.72266 l -0.9534,0 0,-0.28125 C 98.3789,6.1875 97.5273,5.94531 96.6719,5.72266 l -0.4414,0 0,-0.11719 C 92.9844,4.77344 89.668,4.14453 86.293,3.72656 l -3.0664,0 0,-0.32031 C 80.9727,3.21094 78.6953,3.10938 76.3945,3.10938 c -2.082,0 -4.1406,0.07812 -6.1679,0.23828 z m 23.0156,100.25734 2.2187,9.383 30.6841,0 4.332,23.649 -50.7075,0 c -1.0429,0 -2.0547,-0.793 -2.332,-1.828 L 68.5156,85.5508 c -0.164,-0.6172 -0.039,-1.2344 0.336,-1.6641 0.3828,-0.4336 0.9687,-0.6367 1.6015,-0.5469 C 79.6719,84.6367 91.7188,83 89.6289,70.4375 88.4102,63.0977 83.1289,58.75 75.2266,58.75 c -0.211,0 -0.4258,0 -0.6407,0 l -4.7539,0.0078 0,0.0117 -14.0507,0 -3.9922,-21.7617 13.7265,0 c 0.0274,0 0.0586,-0.0117 0.0821,-0.0195 0.6093,0 1.2343,0.0117 1.8593,0.0195 l 1.125,0 c 0.2383,0 0.4844,-0.0117 0.7227,-0.0195 22.6797,-0.6328 42.8083,10.7148 46.9413,35.4961 1.652,9.8945 -0.051,17.7695 -5.082,23.4101 -4.195,4.5895 -11.621,7.7105 -17.9218,7.7105 l 0,0 z m 0,0 0,0" /><path
         id="path18"
         style="fill:#000000;fill-opacity:1;fill-rule:evenodd;stroke:none"
         d="m 575.824,34.3516 0.578,3.2656 c 0.047,0.2266 0.082,0.4961 0.133,0.7851 0.055,0.3008 0.094,0.6094 0.149,0.9415 0.054,0.3203 0.101,0.6406 0.144,0.9531 0.051,0.3164 0.09,0.6054 0.133,0.8672 l 0.07,-0.0039 c 0.032,-0.2579 0.074,-0.543 0.117,-0.8477 0.04,-0.3086 0.082,-0.625 0.129,-0.9492 0.043,-0.3203 0.086,-0.6289 0.137,-0.9297 0.043,-0.3086 0.086,-0.5781 0.125,-0.8164 l 0.508,-3.2656 -2.223,0 z m 2.5,-2.3672 0.672,-3.5625 2.945,0 -3.039,15.6133 -3.636,0 -3.379,-15.6133 2.945,0 0.691,3.5625 2.801,0 z m -17.636,12.0508 0,-15.6133 2.964,0 0,6.6211 0.227,0 c 0.402,0 0.734,-0.1211 0.992,-0.3711 0.25,-0.2461 0.453,-0.5977 0.617,-1.043 0.164,-0.4453 0.301,-0.9805 0.434,-1.5898 0.125,-0.6133 0.242,-1.2266 0.375,-1.8477 0.125,-0.6133 0.289,-1.2031 0.48,-1.7695 l 3.012,0 c -0.215,0.7109 -0.402,1.4453 -0.562,2.1914 -0.161,0.7422 -0.321,1.4844 -0.481,2.2539 -0.137,0.6406 -0.308,1.2148 -0.508,1.7344 -0.195,0.5156 -0.453,0.9726 -0.785,1.3437 -0.328,0.3789 -0.754,0.6719 -1.281,0.8867 l 3.57,7.2032 -3.332,0 -2.531,-6.7891 -0.227,0 0,6.7891 -2.964,0 z m -13.735,0 0,-15.6133 2.813,0 2.293,5.9492 c 0.171,0.4453 0.359,0.9336 0.546,1.4687 0.196,0.5391 0.387,1.0665 0.571,1.6133 0.176,0.5352 0.328,1.0352 0.453,1.5078 l 0.051,0 c -0.051,-0.7851 -0.102,-1.7578 -0.145,-2.9257 -0.039,-1.168 -0.062,-2.5313 -0.062,-4.0899 l 0,-3.5234 2.656,0 0,15.6133 -2.758,0 -2.293,-6.0469 c -0.117,-0.3008 -0.25,-0.6406 -0.394,-1.0235 -0.145,-0.3867 -0.301,-0.7851 -0.45,-1.207 -0.16,-0.4219 -0.316,-0.8359 -0.461,-1.2383 -0.144,-0.4023 -0.277,-0.7773 -0.382,-1.1172 l -0.051,0 c 0.043,0.5469 0.09,1.1875 0.14,1.9415 0.036,0.7539 0.079,1.5703 0.11,2.4609 0.031,0.8867 0.051,1.8164 0.051,2.7773 l 0,3.4532 -2.688,0 z m -13.773,0 0,-15.6133 3.039,0 0,6.5312 3.172,0 0,-6.5312 3.035,0 0,15.6133 -3.035,0 0,-6.2539 -3.172,0 0,6.2539 -3.039,0 z m -3.09,-15.6133 -3.078,7.8515 2.914,7.7618 -3.039,0 -0.785,-2.8516 c -0.067,-0.2813 -0.137,-0.5586 -0.207,-0.8281 -0.067,-0.2696 -0.145,-0.5469 -0.227,-0.8282 -0.074,-0.2773 -0.156,-0.5781 -0.238,-0.8945 l -0.039,0.0078 c -0.118,0.4375 -0.235,0.8594 -0.352,1.2735 -0.117,0.414 -0.23,0.8242 -0.344,1.2265 l -0.929,2.8946 -3.153,0 2.801,-7.625 -2.918,-7.9883 3.012,0 0.836,2.8203 c 0.113,0.4453 0.23,0.8984 0.351,1.375 0.114,0.4726 0.239,0.9609 0.364,1.457 l 0.07,0 c 0.125,-0.4961 0.266,-0.9726 0.41,-1.4258 0.129,-0.457 0.274,-0.9101 0.43,-1.3554 l 0.976,-2.8711 3.145,0 z m -12.574,9.3828 -3.536,0 0,3.5859 3.75,0.0078 0,2.6368 -6.789,0 0,-15.6133 7.039,0 0,2.6328 -4,0 0,4.2187 3.536,0.0079 0,2.5234 z m -15.832,-9.3828 3.039,0 0,12.8125 2.781,0 0,2.8008 -8.578,0 0,-2.8008 2.758,0 0,-12.8125 z m -32.887,8.5976 c -0.086,-0.0117 -0.141,-0.0234 -0.199,-0.0234 -0.063,0 -0.141,0 -0.246,0 -0.446,0 -0.821,0.1055 -1.149,0.3008 -0.32,0.1953 -0.578,0.4765 -0.754,0.8398 -0.176,0.3594 -0.269,0.793 -0.269,1.2891 0,0.3008 0.043,0.5898 0.113,0.8594 0.078,0.2773 0.203,0.5273 0.363,0.7421 0.16,0.2188 0.371,0.3907 0.629,0.5196 0.254,0.1328 0.559,0.1914 0.91,0.1953 0.114,0 0.219,-0.0039 0.328,-0.0117 0.098,-0.0117 0.196,-0.0313 0.274,-0.0586 l 0,-4.6524 z m -3.09,-8.5976 c 0.109,0.2148 0.199,0.4453 0.266,0.6719 0.074,0.2265 0.136,0.4648 0.175,0.6914 0.063,0.3007 0.125,0.6523 0.176,1.0429 0.055,0.4024 0.125,0.8086 0.188,1.2227 0.074,0.4219 0.164,0.8047 0.273,1.164 0.11,0.3633 0.242,0.6524 0.414,0.879 0.149,0.1875 0.336,0.332 0.547,0.414 0.211,0.0938 0.457,0.1445 0.719,0.1445 l 0.332,0 0,-6.2304 3.031,0 0,15.3867 c -0.48,0.0898 -1.008,0.1641 -1.578,0.2148 -0.57,0.0508 -1.148,0.0821 -1.734,0.0821 -0.805,0 -1.539,-0.0938 -2.223,-0.2774 -0.668,-0.1953 -1.25,-0.4883 -1.746,-0.8789 -0.289,-0.2344 -0.539,-0.5078 -0.758,-0.8281 -0.215,-0.3281 -0.383,-0.7031 -0.512,-1.1328 -0.125,-0.4258 -0.187,-0.9024 -0.187,-1.4492 0,-0.6524 0.113,-1.2383 0.34,-1.7344 0.218,-0.4961 0.531,-0.9102 0.933,-1.25 0.403,-0.332 0.875,-0.582 1.414,-0.7461 l 0,-0.0391 c -0.199,-0.0742 -0.39,-0.1679 -0.589,-0.289 -0.196,-0.1172 -0.372,-0.2578 -0.516,-0.4141 -0.289,-0.3008 -0.512,-0.6601 -0.676,-1.0664 -0.168,-0.3984 -0.297,-0.8359 -0.383,-1.2812 -0.097,-0.4532 -0.179,-0.9063 -0.254,-1.3516 -0.07,-0.457 -0.16,-0.8789 -0.269,-1.2813 -0.082,-0.3007 -0.176,-0.5898 -0.262,-0.875 -0.109,-0.2812 -0.207,-0.5507 -0.316,-0.789 l 3.195,0 z m -11.656,5.9297 0.578,3.2656 c 0.039,0.2266 0.082,0.4961 0.125,0.7851 0.051,0.3008 0.101,0.6094 0.152,0.9415 0.055,0.3203 0.094,0.6406 0.145,0.9531 0.043,0.3164 0.086,0.6054 0.137,0.8672 l 0.062,-0.0039 c 0.035,-0.2579 0.07,-0.543 0.117,-0.8477 0.043,-0.3086 0.086,-0.625 0.129,-0.9492 0.043,-0.3203 0.094,-0.6289 0.137,-0.9297 0.039,-0.3086 0.082,-0.5781 0.133,-0.8164 l 0.507,-3.2656 -2.222,0 z m 2.5,-2.3672 0.672,-3.5625 2.945,0 -3.039,15.6133 -3.633,0 -3.394,-15.6133 2.945,0 0.699,3.5625 2.805,0 z m -15.278,3.3906 0.645,0 c 0.406,0 0.785,-0.0937 1.121,-0.2695 0.348,-0.1836 0.621,-0.4492 0.828,-0.8008 0.211,-0.3555 0.321,-0.7969 0.321,-1.3164 0,-0.5274 -0.11,-0.961 -0.305,-1.3125 -0.195,-0.3399 -0.465,-0.5977 -0.805,-0.7735 -0.332,-0.1757 -0.715,-0.2617 -1.137,-0.2617 -0.136,0 -0.25,0 -0.363,0.0039 -0.113,0.0078 -0.215,0.0196 -0.308,0.043 l 0.003,4.6875 z m 0,6.3633 c 0.09,0.0351 0.207,0.0625 0.336,0.0742 0.137,0.0195 0.301,0.0195 0.469,0.0195 0.414,0 0.738,-0.0937 1,-0.2695 0.266,-0.1719 0.457,-0.4219 0.582,-0.7227 0.117,-0.2968 0.18,-0.6406 0.18,-1.0234 0,-0.4297 -0.09,-0.8047 -0.258,-1.1367 -0.164,-0.3281 -0.391,-0.5859 -0.676,-0.7813 -0.289,-0.1836 -0.621,-0.2812 -0.988,-0.2812 l -0.645,0 0,4.1211 z M 438.23,28.4922 c 0.352,-0.0586 0.766,-0.1094 1.239,-0.1406 0.484,-0.0313 1.015,-0.043 1.597,-0.043 0.864,0 1.633,0.0586 2.278,0.1758 0.652,0.1211 1.211,0.2969 1.676,0.5351 0.464,0.2266 0.859,0.5157 1.156,0.8594 0.379,0.3828 0.66,0.8242 0.863,1.332 0.203,0.5157 0.305,1.086 0.305,1.7266 0,0.5781 -0.106,1.125 -0.321,1.6211 -0.207,0.5078 -0.515,0.9414 -0.921,1.3008 -0.407,0.3633 -0.918,0.6328 -1.516,0.8086 l 0,0.0898 c 0.512,0.2305 0.93,0.5195 1.262,0.8711 0.328,0.3594 0.578,0.7539 0.742,1.1875 0.156,0.4336 0.238,0.8789 0.238,1.3516 0,0.5508 -0.086,1.0703 -0.281,1.5625 -0.18,0.4843 -0.484,0.9101 -0.899,1.2617 -0.359,0.3086 -0.765,0.5469 -1.187,0.6992 -0.426,0.168 -0.867,0.2734 -1.344,0.332 -0.465,0.0625 -0.941,0.086 -1.437,0.0821 -0.645,0 -1.27,-0.0196 -1.86,-0.0703 -0.586,-0.0508 -1.125,-0.125 -1.59,-0.2266 l 0,-15.3164 z m -8.722,13.082 c 0.351,0 0.64,-0.1445 0.871,-0.4219 0.23,-0.2812 0.414,-0.664 0.555,-1.1562 0.14,-0.4883 0.238,-1.043 0.3,-1.6641 0.051,-0.6211 0.082,-1.2734 0.082,-1.9648 0,-0.7969 -0.031,-1.5352 -0.101,-2.1992 -0.063,-0.6641 -0.164,-1.2539 -0.301,-1.7383 -0.144,-0.4961 -0.332,-0.875 -0.559,-1.1445 -0.226,-0.2696 -0.496,-0.4063 -0.82,-0.4141 -0.621,0 -1.086,0.4531 -1.41,1.3516 -0.332,0.8906 -0.484,2.2343 -0.496,4 0,1.125 0.074,2.0859 0.223,2.8828 0.144,0.7968 0.355,1.4062 0.636,1.8281 0.278,0.4258 0.617,0.6406 1.02,0.6406 z m 0.144,2.6446 c -0.699,0 -1.324,-0.1446 -1.879,-0.4102 -0.546,-0.2773 -1.035,-0.6641 -1.445,-1.1602 -0.414,-0.4921 -0.75,-1.0742 -1.023,-1.7343 -0.27,-0.6719 -0.477,-1.3868 -0.621,-2.1797 -0.133,-0.7852 -0.2,-1.6016 -0.2,-2.461 0,-0.8632 0.055,-1.6914 0.168,-2.4804 0.121,-0.793 0.301,-1.5274 0.551,-2.1992 0.25,-0.6797 0.555,-1.2618 0.953,-1.7696 0.383,-0.5 0.844,-0.8867 1.391,-1.164 0.543,-0.2813 1.168,-0.4258 1.871,-0.4258 0.746,-0.0078 1.426,0.1445 2.035,0.4648 0.617,0.3125 1.156,0.7969 1.602,1.461 0.445,0.6601 0.793,1.5195 1.043,2.5703 0.238,1.0468 0.363,2.3047 0.371,3.7695 0,0.7266 -0.051,1.4492 -0.145,2.1758 -0.094,0.7305 -0.25,1.4219 -0.469,2.0859 -0.222,0.6602 -0.523,1.25 -0.894,1.7735 -0.363,0.5117 -0.82,0.9218 -1.375,1.2226 -0.539,0.3008 -1.188,0.4531 -1.941,0.461 l 0.007,0 z m -13.66,-15.7969 3.028,0 0,12.8125 2.781,0 0,2.8008 -8.567,0 0,-2.8008 2.758,0 0,-12.8125 z m -9.258,15.6133 0,-15.6133 3.039,0 0,15.6133 -3.039,0 z m -7.015,-8.2657 c 0.105,0.0196 0.207,0.0391 0.32,0.0508 0.113,0.0078 0.219,0.0078 0.332,0.0078 0.422,0 0.774,-0.1093 1.086,-0.3203 0.309,-0.2148 0.547,-0.5156 0.711,-0.8945 0.168,-0.3828 0.258,-0.8203 0.258,-1.332 -0.008,-0.4688 -0.094,-0.8907 -0.274,-1.2735 -0.179,-0.3828 -0.429,-0.6953 -0.754,-0.9219 -0.32,-0.2265 -0.699,-0.3515 -1.121,-0.3515 -0.082,0 -0.168,0 -0.261,0 -0.098,0.0117 -0.188,0.0234 -0.297,0.0429 l 0,4.9922 z m -3.039,8.2657 0,-15.543 c 0.359,-0.0586 0.761,-0.1094 1.222,-0.1406 0.461,-0.0313 0.938,-0.043 1.426,-0.043 1.094,0 2.067,0.1445 2.899,0.4219 0.836,0.289 1.519,0.7031 2.054,1.2617 0.414,0.4219 0.727,0.9297 0.953,1.5195 0.223,0.586 0.34,1.2735 0.344,2.0547 -0.004,0.7227 -0.125,1.3672 -0.351,1.9453 -0.239,0.5781 -0.559,1.0821 -0.981,1.4961 -0.426,0.4141 -0.922,0.7227 -1.504,0.9492 -0.586,0.2188 -1.219,0.3321 -1.918,0.3321 -0.176,0 -0.359,-0.0118 -0.558,-0.0313 -0.196,-0.0195 -0.391,-0.0508 -0.578,-0.082 l 0,5.8594 -3.008,0 z m -9.809,-8.2657 c 0.207,0.0391 0.438,0.0586 0.688,0.0586 0.339,0 0.648,-0.0703 0.918,-0.2031 0.277,-0.1367 0.511,-0.3125 0.711,-0.5352 0.195,-0.2304 0.347,-0.5 0.445,-0.8085 0.105,-0.3008 0.156,-0.6407 0.156,-1 0,-0.3516 -0.051,-0.6758 -0.148,-0.9844 -0.102,-0.3125 -0.246,-0.586 -0.43,-0.8164 -0.199,-0.2383 -0.434,-0.4258 -0.715,-0.5469 -0.277,-0.1367 -0.598,-0.1992 -0.961,-0.1992 -0.125,0 -0.234,0 -0.347,0.0117 -0.118,0 -0.219,0.0195 -0.321,0.0547 l 0.004,4.9687 z m -3.035,8.2657 0,-15.543 c 0.352,-0.0586 0.758,-0.1094 1.238,-0.1406 0.481,-0.0313 1.004,-0.043 1.59,-0.043 1.109,0 2.082,0.1328 2.918,0.4102 0.84,0.2812 1.531,0.6953 2.063,1.2539 0.406,0.4101 0.722,0.9296 0.953,1.5156 0.218,0.6015 0.34,1.2734 0.343,2.0273 -0.003,0.7852 -0.144,1.4883 -0.406,2.0782 -0.265,0.6093 -0.633,1.1054 -1.101,1.5117 -0.426,0.3867 -0.922,0.6758 -1.5,0.875 -0.579,0.2031 -1.2,0.3086 -1.86,0.3086 -0.219,0 -0.418,-0.0118 -0.621,-0.0313 -0.183,-0.0273 -0.39,-0.0508 -0.609,-0.082 l 0,3.2656 4.941,0 0,2.5938 -7.949,0" /><path
         id="path20"
         style="fill:#000000;fill-opacity:1;fill-rule:evenodd;stroke:none"
         d="m 308.461,34.2813 0.578,3.2656 c 0.047,0.2265 0.09,0.4922 0.133,0.7851 0.051,0.2969 0.094,0.6172 0.144,0.9375 0.051,0.3243 0.102,0.6407 0.145,0.961 0.051,0.3125 0.094,0.6015 0.141,0.8633 l 0.066,0 c 0.035,-0.254 0.074,-0.5391 0.121,-0.8516 0.043,-0.3086 0.086,-0.6211 0.129,-0.9492 0.039,-0.3203 0.09,-0.6289 0.133,-0.9297 0.047,-0.3008 0.09,-0.5703 0.133,-0.8086 l 0.511,-3.2734 -2.234,0 z m 2.5,-2.3633 0.672,-3.5664 2.945,-0.0039 -3.039,15.6171 -3.633,0.0079 -3.379,-15.6211 2.942,-0.0039 0.695,3.5664 2.797,0.0039 z m -17.637,12.0547 0,-15.625 2.961,0 0,6.625 0.235,0.0039 c 0.406,-0.0039 0.73,-0.1289 0.984,-0.375 0.25,-0.2461 0.469,-0.5899 0.621,-1.043 0.164,-0.4453 0.301,-0.9805 0.434,-1.5938 0.125,-0.6054 0.25,-1.2187 0.379,-1.8398 0.128,-0.6172 0.289,-1.207 0.48,-1.7734 l 3.008,-0.0039 c -0.219,0.7226 -0.406,1.4492 -0.563,2.1914 -0.164,0.7422 -0.32,1.5 -0.476,2.2617 -0.141,0.6367 -0.317,1.2109 -0.512,1.7383 -0.195,0.5156 -0.457,0.9687 -0.785,1.3437 -0.32,0.3711 -0.754,0.6719 -1.281,0.875 l 3.574,7.207 -3.336,0.0079 -2.524,-6.7891 -0.238,0 0,6.7891 -2.961,0 z m -13.73,0 0,-15.625 2.808,0 2.293,5.9531 c 0.172,0.4531 0.36,0.9414 0.555,1.4687 0.191,0.5352 0.379,1.0664 0.563,1.6094 0.175,0.5391 0.332,1.043 0.46,1.5117 l 0.043,0.0078 c -0.05,-0.7929 -0.101,-1.7656 -0.14,-2.9336 -0.043,-1.1679 -0.059,-2.5312 -0.067,-4.0937 l 0,-3.5234 2.664,0 0,15.6171 -2.757,0.0079 -2.293,-6.0547 c -0.121,-0.3008 -0.254,-0.6407 -0.395,-1.0235 -0.148,-0.3828 -0.305,-0.7851 -0.461,-1.2109 -0.156,-0.4219 -0.308,-0.832 -0.449,-1.2383 -0.148,-0.4023 -0.273,-0.7734 -0.387,-1.1172 l -0.051,0 c 0.04,0.5469 0.09,1.1992 0.133,1.9532 0.047,0.746 0.09,1.5703 0.114,2.4609 0.039,0.8867 0.058,1.8164 0.058,2.7773 l 0,3.4532 -2.691,0 z m -13.77,0 0,-15.625 3.031,0 0,6.5351 3.18,0.0078 0,-6.539 3.031,-0.0039 0,15.6171 -3.031,0.0079 0,-6.2618 -3.18,0 0,6.2618 -3.031,0 z m -8.726,-2.461 c 0.355,0 0.64,-0.1445 0.867,-0.4336 0.234,-0.2773 0.422,-0.6601 0.558,-1.1445 0.141,-0.4883 0.239,-1.0469 0.305,-1.6641 0.047,-0.6328 0.082,-1.2812 0.082,-1.9765 0,-0.793 -0.035,-1.5274 -0.101,-2.1875 -0.063,-0.6719 -0.164,-1.25 -0.309,-1.7383 -0.137,-0.4961 -0.328,-0.875 -0.555,-1.1445 -0.226,-0.2774 -0.492,-0.4141 -0.82,-0.4141 -0.625,0 -1.086,0.4531 -1.414,1.3516 -0.32,0.8906 -0.484,2.2265 -0.492,4 0,1.125 0.078,2.0859 0.23,2.8828 0.137,0.7968 0.348,1.4062 0.625,1.8281 0.285,0.4258 0.625,0.6406 1.024,0.6406 z m 0.14,2.6406 c -0.699,-0.0039 -1.324,-0.1406 -1.871,-0.4179 -0.554,-0.2696 -1.039,-0.6524 -1.453,-1.1485 -0.414,-0.4921 -0.754,-1.0742 -1.027,-1.7421 -0.274,-0.6641 -0.481,-1.3868 -0.61,-2.1719 -0.132,-0.7852 -0.211,-1.6094 -0.211,-2.4688 0,-0.8593 0.063,-1.6836 0.18,-2.4804 0.117,-0.793 0.297,-1.5274 0.547,-2.1993 0.242,-0.6718 0.555,-1.2617 0.945,-1.7578 0.383,-0.5078 0.848,-0.8984 1.395,-1.1679 0.539,-0.2813 1.168,-0.4219 1.871,-0.4258 0.746,0 1.426,0.1484 2.039,0.4648 0.617,0.3125 1.16,0.8008 1.605,1.4688 0.446,0.6601 0.79,1.5195 1.043,2.5625 0.239,1.0468 0.364,2.3086 0.364,3.7734 0.004,0.7227 -0.051,1.4453 -0.137,2.1719 -0.098,0.7305 -0.258,1.4258 -0.48,2.0937 -0.219,0.6602 -0.516,1.25 -0.887,1.7657 -0.367,0.5117 -0.828,0.9296 -1.375,1.2304 -0.547,0.293 -1.192,0.4453 -1.946,0.4532 l 0.008,-0.004 z m -13.8,-2.6875 c 0.097,0.0391 0.207,0.0704 0.339,0.0899 0.133,0.0195 0.266,0.0312 0.403,0.0312 0.476,-0.0117 0.855,-0.1132 1.144,-0.332 0.289,-0.2148 0.5,-0.5078 0.633,-0.8672 0.133,-0.3711 0.203,-0.7773 0.195,-1.2383 0,-0.4882 -0.074,-0.9296 -0.23,-1.3125 -0.152,-0.3828 -0.391,-0.6836 -0.719,-0.9023 -0.324,-0.2227 -0.734,-0.3281 -1.25,-0.3398 -0.094,0 -0.176,0 -0.258,0.0117 -0.086,0 -0.168,0.0078 -0.25,0.0195 l -0.007,4.8398 z m -3.032,-13.1171 3.032,0 0,5.8203 c 0.105,-0.0117 0.207,-0.0235 0.304,-0.0235 0.094,0 0.199,0 0.301,0 0.434,0 0.875,0.0508 1.336,0.1563 0.457,0.1133 0.906,0.2695 1.328,0.4961 0.43,0.2265 0.809,0.5039 1.133,0.8476 0.414,0.4258 0.738,0.9493 0.969,1.5703 0.234,0.6211 0.347,1.3438 0.359,2.1915 0,0.4414 -0.051,0.875 -0.145,1.2929 -0.101,0.4219 -0.246,0.8125 -0.445,1.1797 -0.195,0.3672 -0.449,0.6797 -0.754,0.957 -0.34,0.3125 -0.719,0.5586 -1.144,0.7344 -0.434,0.1758 -0.903,0.2969 -1.422,0.3711 -0.52,0.0625 -1.078,0.1016 -1.68,0.0938 -0.586,0 -1.152,-0.0235 -1.699,-0.0821 -0.547,-0.0547 -1.039,-0.125 -1.473,-0.2187 l 0,-15.3867 z m -9.25,0 3.028,0 0,12.8125 2.781,0 0,2.8046 -8.567,0.0079 0,-2.8086 2.758,-0.0039 0,-12.8125 z m -14.058,15.625 0,-15.625 2.972,0 0,6.625 0.227,0.0039 c 0.402,-0.0039 0.734,-0.1289 0.992,-0.375 0.25,-0.2461 0.457,-0.5899 0.613,-1.043 0.164,-0.4453 0.309,-0.9805 0.434,-1.5938 0.125,-0.6054 0.25,-1.2187 0.375,-1.8398 0.133,-0.6172 0.289,-1.207 0.484,-1.7734 l 3.012,-0.0039 c -0.215,0.7226 -0.406,1.4492 -0.566,2.1914 -0.164,0.7422 -0.321,1.5 -0.477,2.2617 -0.141,0.6367 -0.309,1.2109 -0.504,1.7383 -0.199,0.5156 -0.465,0.9687 -0.789,1.3437 -0.328,0.3711 -0.75,0.6719 -1.277,0.875 l 3.562,7.207 -3.336,0.0079 -2.523,-6.7891 -0.227,0 0,6.7891 -2.972,0 z m -4.383,-6.2422 -3.547,0 0,3.5976 3.754,0 0,2.6446 -6.789,0 0,-15.625 7.039,0 0,2.6445 -4.004,0 0,4.2187 3.547,0 0,2.5196 z m -19.25,6.2422 0,-7.0469 c 0.004,-1.0117 -0.024,-1.8828 -0.082,-2.625 -0.055,-0.7344 -0.172,-1.3633 -0.328,-1.8711 -0.16,-0.5078 -0.399,-0.918 -0.703,-1.2305 -0.145,-0.1211 -0.309,-0.2383 -0.481,-0.3281 -0.191,-0.082 -0.371,-0.1563 -0.562,-0.207 l 0.648,-2.5703 c 0.395,0.0078 0.773,0.0781 1.129,0.207 0.367,0.1406 0.687,0.3203 0.98,0.5586 0.493,0.3867 0.879,0.8672 1.176,1.4414 0.297,0.5781 0.516,1.2305 0.66,1.9531 0.149,0.7266 0.246,1.5078 0.301,2.3477 0.043,0.8359 0.07,1.6953 0.063,2.6015 l 0,4.125 2.297,0 0,-12.9804 3.035,0 0,15.6171 -8.133,0.0079 z m -11.731,-9.043 4.219,0 c -0.031,-0.3594 -0.082,-0.7305 -0.156,-1.1055 -0.082,-0.3711 -0.195,-0.7344 -0.34,-1.082 -0.144,-0.3516 -0.344,-0.6641 -0.578,-0.9414 -0.238,-0.2695 -0.527,-0.4961 -0.871,-0.6524 -0.34,-0.164 -0.742,-0.2461 -1.207,-0.2461 -0.301,0 -0.578,0.0196 -0.836,0.0704 l -0.133,0.0312 -0.117,0.0313 0,-2.6954 c 0.094,-0.0234 0.187,-0.0429 0.285,-0.0625 l 0.082,-0.0195 c 0.356,-0.0625 0.731,-0.0937 1.133,-0.1015 0.898,0.0078 1.703,0.1953 2.426,0.5664 0.722,0.3711 1.343,0.9062 1.859,1.5976 0.508,0.6953 0.902,1.5313 1.18,2.5039 0.277,0.9688 0.414,2.0664 0.422,3.2656 0,0.5977 -0.032,1.2071 -0.102,1.836 -0.062,0.6211 -0.184,1.2305 -0.34,1.8398 -0.164,0.6016 -0.375,1.168 -0.652,1.6953 -0.27,0.5274 -0.617,0.9922 -1.024,1.3946 -0.402,0.4023 -0.894,0.7148 -1.457,0.9531 -0.566,0.2266 -1.218,0.3398 -1.964,0.3398 -0.422,0 -0.813,-0.0312 -1.165,-0.0937 -0.214,-0.0391 -0.414,-0.082 -0.601,-0.1328 l -0.082,-0.0235 0,-2.6836 0.117,0.0391 c 0.121,0.0352 0.246,0.0742 0.367,0.1055 0.305,0.0586 0.621,0.1015 0.946,0.1015 0.402,0 0.769,-0.082 1.074,-0.2382 0.316,-0.1641 0.578,-0.3789 0.797,-0.6485 0.226,-0.2656 0.41,-0.5703 0.547,-0.9023 0.144,-0.3281 0.253,-0.6797 0.32,-1.0313 0.074,-0.3515 0.109,-0.6914 0.109,-1.0234 l -4.258,0 0,-2.6875" /><path
         id="path22"
         style="fill:#e40019;fill-opacity:1;fill-rule:evenodd;stroke:none"
         d="m 341.793,36.0586 0,-0.0117 c -0.371,-3.7617 2.383,-6.8086 6.145,-6.8086 3.765,0 6.843,3.0586 7.511,6.8086 l 1.203,6.8203 -7.363,0.0039 c -3.766,0 -7.117,-3.0508 -7.496,-6.8125 l 0,0 z m 0,0 0,0" /><path
         id="path24"
         style="fill:#fefefe;fill-opacity:1;fill-rule:evenodd;stroke:none"
         d="m 69.832,58.7695 0,0 z M 69.3047,36.9883 c 45.4333,-1.4336 55.6523,43.6445 41.8593,58.9062 -4.195,4.5895 -11.621,7.7105 -17.9218,7.7105 l 2.2187,9.383 30.6841,0 4.332,23.649 -50.7075,0 c -1.0429,0 -2.0547,-0.793 -2.332,-1.828 l -8.9219,-49.2582 1.9375,-2.211 C 79.6719,84.6367 91.7188,83 89.6289,70.4375 87.6328,58.4258 77.9336,58.75 69.832,58.7695 l -14.0507,0 -3.9922,-21.7617 17.5156,-0.0195" /></g></g></svg>